<?xml version="1.0" standalone="no"?>
<!DOCTYPE svg PUBLIC "-//W3C//DTD SVG 20010904//EN"
 "http://www.w3.org/TR/2001/REC-SVG-20010904/DTD/svg10.dtd">
<svg version="1.0" xmlns="http://www.w3.org/2000/svg"
 width="512.000000pt" height="512.000000pt" viewBox="0 0 512.000000 512.000000"
 preserveAspectRatio="xMidYMid meet">

<g transform="translate(0.000000,512.000000) scale(0.100000,-0.100000)"
fill="#000000" stroke="none">
<path d="M452 5100 c-109 -29 -187 -74 -272 -160 -87 -86 -131 -163 -160 -276
-20 -76 -20 -118 -20 -2104 0 -1986 0 -2028 20 -2104 29 -113 73 -190 160
-276 86 -87 163 -131 276 -160 76 -20 119 -20 2341 -20 l2265 0 29 29 29 29 0
2502 0 2502 -29 29 -29 29 -2269 -1 c-2200 0 -2270 -1 -2341 -19z m4496 -2027
l-3 -1878 -2240 -5 c-1850 -4 -2247 -7 -2280 -19 -66 -22 -148 -67 -203 -110
l-52 -41 0 1773 c0 1938 -3 1828 57 1939 31 58 113 138 171 167 102 52 -18 50
2350 50 l2202 1 -2 -1877z m2 -2478 l0 -425 -2198 0 c-1942 0 -2205 2 -2257
15 -215 56 -353 264 -317 477 28 163 128 282 283 338 53 19 108 19 2272 20
l2217 0 0 -425z"/>
<path d="M969 4581 l-29 -29 0 -1482 0 -1481 25 -24 24 -25 1741 0 1741 0 24
25 25 24 0 1483 c-1 1150 -3 1487 -13 1499 -7 9 -22 21 -34 27 -16 9 -455 12
-1748 12 l-1727 0 -29 -29z m3381 -1383 c0 -683 -2 -1239 -4 -1237 -2 2 -234
416 -515 919 -282 503 -523 925 -537 938 -27 23 -63 28 -93 12 -10 -5 -220
-349 -467 -765 -358 -605 -450 -753 -460 -743 -6 7 -102 153 -213 323 -130
200 -212 316 -230 328 -35 21 -70 15 -99 -16 -11 -12 -149 -236 -307 -497
-158 -261 -294 -484 -301 -495 -12 -16 -14 171 -14 1228 l0 1247 1620 0 1620
0 0 -1242z m-592 -538 c272 -487 503 -900 514 -918 l20 -32 -813 2 -812 3
-134 205 c-74 113 -136 210 -139 216 -4 9 803 1387 839 1432 8 11 12 10 20 -5
6 -10 233 -416 505 -903z m-1624 -438 c180 -277 326 -505 323 -508 -2 -2 -292
-3 -644 -2 l-640 3 310 513 c171 282 314 509 317 505 4 -5 154 -234 334 -511z"/>
<path d="M2243 4089 c-69 -13 -129 -45 -177 -92 -55 -55 -80 -104 -96 -183
-46 -236 178 -449 411 -390 116 30 207 111 245 217 20 59 20 174 -2 230 -62
157 -223 250 -381 218z m156 -197 c47 -34 71 -80 71 -136 0 -82 -48 -145 -125
-165 -167 -42 -282 162 -160 283 56 56 152 64 214 18z"/>
<path d="M625 825 c-37 -36 -34 -86 6 -119 l31 -26 1764 0 c1922 0 1806 -4
1832 55 15 32 8 61 -21 93 l-20 22 -1784 0 -1784 0 -24 -25z"/>
<path d="M1135 485 c-35 -34 -33 -78 4 -116 l29 -29 1777 0 1777 0 29 29 c40
40 36 93 -10 128 -12 10 -413 12 -1799 13 l-1783 0 -24 -25z"/>
</g>
</svg>
